<?xml version="1.0" standalone="no"?>
<!--
  ~    Copyright 2018 prasenjit-net
  ~
  ~    Licensed under the Apache License, Version 2.0 (the "License");
  ~    you may not use this file except in compliance with the License.
  ~    You may obtain a copy of the License at
  ~
  ~        http://www.apache.org/licenses/LICENSE-2.0
  ~
  ~    Unless required by applicable law or agreed to in writing, software
  ~    distributed under the License is distributed on an "AS IS" BASIS,
  ~    WITHOUT WARRANTIES OR CONDITIONS OF ANY KIND, either express or implied.
  ~    See the License for the specific language governing permissions and
  ~    limitations under the License.
  -->

<!DOCTYPE svg PUBLIC "-//W3C//DTD SVG 20010904//EN"
 "http://www.w3.org/TR/2001/REC-SVG-20010904/DTD/svg10.dtd">
<svg version="1.0" xmlns="http://www.w3.org/2000/svg"
 width="512.000000pt" height="512.000000pt" viewBox="0 0 512.000000 512.000000"
 preserveAspectRatio="xMidYMid meet">
<metadata>
Created by potrace 1.11, written by Peter Selinger 2001-2013
</metadata>
<g transform="translate(0.000000,512.000000) scale(0.100000,-0.100000)"
fill="#000000" stroke="none">
<path d="M1232 5105 c-251 -44 -468 -165 -595 -333 -62 -82 -91 -135 -124
-232 -36 -102 -51 -179 -63 -320 -5 -62 -17 -128 -29 -160 -17 -46 -20 -78
-21 -198 0 -218 33 -345 114 -432 26 -28 86 -129 86 -145 0 -2 -24 -18 -53
-36 -366 -225 -555 -586 -545 -1040 3 -136 5 -148 28 -182 50 -74 154 -128
327 -172 189 -47 476 -84 796 -101 l129 -6 -39 -31 c-124 -98 -281 -294 -358
-446 -106 -212 -161 -485 -153 -761 2 -103 7 -132 24 -165 83 -159 469 -265
1189 -327 202 -17 1028 -17 1230 0 597 51 968 134 1119 249 76 59 90 95 94
243 8 273 -47 548 -150 755 -77 154 -219 335 -336 430 -34 27 -60 50 -59 51 1
1 92 7 202 13 533 32 891 113 1010 228 57 56 65 84 65 241 0 439 -174 776
-515 999 -38 26 -74 49 -78 53 -11 10 41 109 79 150 81 87 114 214 114 432 -1
119 -4 152 -21 198 -11 30 -27 112 -34 183 -40 368 -187 627 -415 729 -36 16
-74 34 -85 41 -11 6 -38 21 -61 34 -76 43 -186 65 -354 70 -253 9 -409 -21
-600 -114 -105 -51 -123 -64 -216 -157 -91 -91 -107 -112 -152 -206 -48 -98
-81 -208 -96 -320 l-7 -45 -121 0 -122 0 -13 84 c-17 110 -64 249 -116 341
-55 98 -181 226 -257 260 -30 14 -91 44 -136 67 -136 70 -201 84 -414 89 -132
2 -209 -1 -268 -11z m608 -537 c21 -80 79 -183 150 -268 70 -84 133 -195 145
-256 6 -30 5 -32 -54 -54 -147 -54 -310 -180 -393 -304 -101 -148 -156 -340
-161 -558 l-2 -98 -68 0 c-51 0 -68 -3 -64 -12 3 -9 25 -13 71 -11 l66 1 0
-45 c0 -31 5 -50 17 -58 13 -10 19 -47 31 -189 9 -97 19 -173 23 -169 17 18
40 136 54 271 16 169 37 223 114 300 102 102 177 130 454 173 423 64 605 136
762 301 l74 77 16 -57 c33 -113 89 -214 186 -335 165 -205 196 -272 210 -462
8 -116 29 -230 49 -264 5 -9 10 -14 10 -11 0 3 7 81 15 174 10 122 18 173 29
185 10 11 16 36 16 63 l0 46 66 -1 c46 -2 68 2 71 11 4 9 -13 12 -60 12 l-65
0 -7 83 c-11 140 -34 267 -66 362 -81 241 -223 408 -383 449 -38 10 -71 27
-97 51 -21 19 -44 35 -49 35 -16 0 -11 51 9 95 36 79 136 157 236 184 22 5
112 21 200 35 292 46 430 101 546 216 l66 66 12 -45 c22 -81 69 -164 149 -264
103 -127 133 -188 144 -297 12 -112 38 -249 49 -256 5 -3 9 5 9 18 0 13 5 73
10 133 12 127 28 157 61 116 17 -20 19 -40 19 -162 0 -76 -5 -161 -11 -189
-11 -52 -59 -120 -84 -120 -7 0 -20 -23 -30 -52 -23 -73 -77 -150 -146 -211
-52 -45 -57 -53 -44 -67 24 -27 65 -275 65 -395 l0 -62 -107 107 c-60 58 -125
119 -146 135 l-38 28 -32 -30 c-49 -47 -138 -100 -206 -123 -34 -11 -65 -19
-69 -16 -4 2 -7 -82 -7 -187 -1 -151 -4 -204 -18 -248 -21 -71 -54 -118 -94
-138 -26 -13 -36 -28 -53 -77 -36 -106 -116 -216 -214 -294 -55 -44 -55 -45
-37 -65 21 -22 42 -117 65 -285 17 -126 31 -310 23 -310 -3 0 -54 50 -114 111
-59 62 -143 140 -187 175 l-78 64 -42 -38 c-106 -98 -261 -177 -346 -177 -85
0 -240 79 -346 177 l-42 38 -78 -64 c-44 -35 -128 -113 -187 -175 -60 -61
-111 -111 -114 -111 -8 0 6 184 23 310 23 168 44 263 65 285 18 20 18 21 -37
65 -98 78 -178 188 -214 294 -17 49 -27 64 -53 77 -40 20 -73 67 -94 138 -14
44 -17 97 -18 248 0 105 -3 189 -7 187 -4 -3 -35 5 -69 16 -68 23 -157 76
-206 123 l-32 30 -38 -28 c-21 -16 -86 -77 -145 -135 l-108 -107 0 62 c0 120
41 368 65 395 13 14 8 22 -44 67 -69 61 -123 138 -146 211 -10 29 -23 52 -30
52 -25 0 -73 68 -84 120 -6 28 -11 113 -11 189 0 120 3 142 18 162 11 13 25
20 34 16 19 -7 25 -40 34 -174 4 -57 10 -103 14 -103 13 0 40 130 49 230 9
112 29 157 96 219 73 67 127 86 340 121 237 38 287 51 404 107 75 36 107 59
160 112 36 37 67 68 68 69 1 1 7 -17 13 -40z m-1226 -2063 c-25 -82 -44 -233
-44 -347 0 -109 -5 -138 -22 -138 -7 0 -9 55 -5 158 5 158 18 229 63 342 22
55 27 46 8 -15z m3932 -81 c22 -75 27 -114 32 -248 4 -131 2 -158 -9 -154 -11
4 -16 42 -20 164 -6 145 -25 276 -50 341 -13 36 -10 42 6 12 8 -15 26 -67 41
-115z m-3071 -1491 c-31 -104 -56 -291 -62 -466 -5 -155 -8 -177 -22 -175 -36
7 -21 330 23 499 24 91 65 203 72 196 2 -2 -3 -26 -11 -54z m2230 -142 c33
-127 43 -220 41 -371 -1 -105 -3 -125 -17 -128 -14 -2 -17 20 -22 175 -6 175
-31 362 -62 467 -8 27 -15 52 -14 55 3 19 54 -118 74 -198z"/>
</g>
</svg>
